<svg width="20" height="20" viewBox="0 0 20 20" fill="none" xmlns="http://www.w3.org/2000/svg">
<path fill-rule="evenodd" clip-rule="evenodd" d="M13.9981 14.6666V12.6666C13.9981 12.2985 13.6996 12 13.3314 12C12.9632 12 12.6648 12.2985 12.6648 12.6666V14.6666C12.6648 15.0348 12.3663 15.3333 11.9981 15.3333H5.33142C4.96323 15.3333 4.66475 15.0348 4.66475 14.6666V5.33331C4.66475 4.96512 4.96323 4.66665 5.33142 4.66665H11.9981C12.3663 4.66665 12.6648 4.96512 12.6648 5.33331V7.33331C12.6648 7.7015 12.9632 7.99998 13.3314 7.99998C13.6996 7.99998 13.9981 7.7015 13.9981 7.33331V5.33331C13.9981 4.22874 13.1027 3.33331 11.9981 3.33331H5.33142C4.22685 3.33331 3.33142 4.22874 3.33142 5.33331V14.6666C3.33142 15.7712 4.22685 16.6666 5.33142 16.6666H11.9981C13.1027 16.6666 13.9981 15.7712 13.9981 14.6666ZM15.1381 8.19331L16.4714 9.52665C16.5976 9.65182 16.6686 9.82222 16.6686 9.99998C16.6686 10.1777 16.5976 10.3481 16.4714 10.4733L15.1381 11.8066C15.0129 11.9329 14.8425 12.0038 14.6648 12.0038C14.487 12.0038 14.3166 11.9329 14.1914 11.8066C14.0652 11.6815 13.9942 11.5111 13.9942 11.3333C13.9942 11.1556 14.0652 10.9852 14.1914 10.86L14.3914 10.6666H9.99809C9.6299 10.6666 9.33142 10.3682 9.33142 9.99998C9.33142 9.63179 9.6299 9.33331 9.99809 9.33331H14.3914L14.1914 9.13998C13.93 8.87856 13.93 8.45473 14.1914 8.19331C14.4528 7.9319 14.8767 7.9319 15.1381 8.19331Z" fill="#0A243F"/>
</svg>
