<svg width="20" height="20" viewBox="0 0 20 20" fill="none" xmlns="http://www.w3.org/2000/svg">
<path d="M11.1012 13.0642C11.7487 13.0643 12.3699 13.3212 12.8278 13.7791C13.1348 14.0861 13.3489 14.4677 13.4586 14.8806H17.7086C18.0536 14.8808 18.3335 15.1606 18.3336 15.5056C18.3336 15.8507 18.0536 16.1304 17.7086 16.1306H13.4586C13.349 16.5439 13.135 16.9259 12.8278 17.2332C12.3699 17.691 11.7487 17.9479 11.1012 17.948C10.4529 17.948 9.83201 17.6895 9.37463 17.2322C9.06731 16.9249 8.85224 16.5436 8.7428 16.1306H2.29163C1.94645 16.1306 1.66663 15.8508 1.66663 15.5056C1.66674 15.1605 1.94652 14.8806 2.29163 14.8806H8.7428C8.85228 14.4678 9.06741 14.0863 9.37463 13.7791C9.83251 13.3213 10.4538 13.0642 11.1012 13.0642ZM11.1012 14.3142C10.7853 14.3142 10.4819 14.4396 10.2584 14.6628C10.035 14.8863 9.90887 15.1896 9.90881 15.5056C9.90881 15.8217 10.0349 16.1249 10.2584 16.3484C10.4824 16.5723 10.7859 16.698 11.1012 16.698C11.4172 16.6979 11.7205 16.5728 11.944 16.3494C12.1677 16.1257 12.2936 15.8215 12.2936 15.5056C12.2935 15.19 12.1678 14.8867 11.944 14.6628C11.7205 14.4394 11.4172 14.3143 11.1012 14.3142ZM5.59534 7.55835C6.24277 7.55845 6.86409 7.81538 7.3219 8.27319C7.62907 8.58039 7.84328 8.96197 7.95276 9.37476H17.7086C18.0536 9.37493 18.3335 9.65479 18.3336 9.99976C18.3336 10.3448 18.0536 10.6246 17.7086 10.6248H7.95276C7.84335 11.0376 7.62906 11.4191 7.3219 11.7263C6.86409 12.1841 6.24277 12.442 5.59534 12.4421C4.9478 12.4421 4.32667 12.1842 3.86877 11.7263C3.56144 11.419 3.34638 11.0378 3.23694 10.6248H2.29163C1.94645 10.6248 1.66663 10.3449 1.66663 9.99976C1.66675 9.65469 1.94653 9.37476 2.29163 9.37476H3.23694C3.34642 8.96191 3.56155 8.58042 3.86877 8.27319C4.32665 7.81548 4.94791 7.55835 5.59534 7.55835ZM5.59534 8.80835C5.27943 8.80835 4.97602 8.93369 4.75256 9.15698C4.52914 9.38041 4.40302 9.68379 4.40295 9.99976C4.40295 10.3158 4.52908 10.619 4.75256 10.8425C4.97604 11.066 5.27932 11.1921 5.59534 11.1921C5.91116 11.192 6.21376 11.0658 6.43713 10.8425C6.66061 10.619 6.78674 10.3158 6.78674 9.99976C6.78668 9.68379 6.66056 9.38041 6.43713 9.15698C6.21378 8.93385 5.91105 8.80845 5.59534 8.80835ZM13.3033 2.05249C13.624 2.0525 13.9417 2.11534 14.2379 2.23804C14.5341 2.36072 14.8032 2.54068 15.0299 2.76733C15.2565 2.99398 15.4365 3.26322 15.5592 3.55933C15.6009 3.65992 15.633 3.76411 15.6608 3.8689H17.7086C18.0536 3.86907 18.3335 4.14895 18.3336 4.4939C18.3336 4.83897 18.0536 5.11872 17.7086 5.1189H15.6608C15.633 5.22382 15.6009 5.32775 15.5592 5.42847C15.4365 5.72464 15.2566 5.99376 15.0299 6.22046C14.8032 6.44712 14.534 6.62705 14.2379 6.74976C13.9417 6.87245 13.624 6.93627 13.3033 6.93628C12.6558 6.93628 12.0347 6.67836 11.5768 6.22046C11.2695 5.91318 11.0554 5.53181 10.9459 5.1189H2.29163C1.94645 5.1189 1.66663 4.83907 1.66663 4.4939C1.66677 4.14884 1.94653 3.8689 2.29163 3.8689H10.9459C11.0554 3.45613 11.2696 3.07451 11.5768 2.76733C12.0347 2.30953 12.6558 2.05249 13.3033 2.05249ZM13.3033 3.30249C12.9874 3.30249 12.684 3.42774 12.4606 3.65112C12.2372 3.87454 12.112 4.17794 12.1119 4.4939C12.1119 4.8099 12.2372 5.1132 12.4606 5.33667C12.6841 5.56015 12.9873 5.68628 13.3033 5.68628C13.4598 5.68627 13.6149 5.65532 13.7594 5.59546C13.904 5.53557 14.0355 5.44733 14.1461 5.33667C14.2567 5.22605 14.3441 5.09446 14.4039 4.94995C14.4638 4.8054 14.4948 4.65036 14.4948 4.4939C14.4947 4.33749 14.4638 4.18234 14.4039 4.03784C14.344 3.8934 14.2567 3.76169 14.1461 3.65112C14.0355 3.54054 13.9039 3.45318 13.7594 3.39331C13.6148 3.33343 13.4598 3.3025 13.3033 3.30249Z" fill="#0A243F"/>
</svg>
