<svg width="20" height="20" viewBox="0 0 20 20" fill="none" xmlns="http://www.w3.org/2000/svg">
<path d="M18.1712 8.36791H17.5V8.33332H9.99996V11.6667H14.7095C14.0225 13.6071 12.1762 15 9.99996 15C7.23871 15 4.99996 12.7612 4.99996 9.99999C4.99996 7.23874 7.23871 4.99999 9.99996 4.99999C11.2745 4.99999 12.4341 5.48082 13.317 6.26624L15.6741 3.90916C14.1858 2.52207 12.195 1.66666 9.99996 1.66666C5.39788 1.66666 1.66663 5.39791 1.66663 9.99999C1.66663 14.6021 5.39788 18.3333 9.99996 18.3333C14.602 18.3333 18.3333 14.6021 18.3333 9.99999C18.3333 9.44124 18.2758 8.89582 18.1712 8.36791Z" fill="#FFC107"/>
<path d="M2.62746 6.12124L5.36538 8.12916C6.10621 6.29499 7.90038 4.99999 9.99996 4.99999C11.2745 4.99999 12.4341 5.48082 13.317 6.26624L15.6741 3.90916C14.1858 2.52207 12.195 1.66666 9.99996 1.66666C6.79913 1.66666 4.02329 3.47374 2.62746 6.12124Z" fill="#FF3D00"/>
<path d="M9.99996 18.3333C12.1525 18.3333 14.1083 17.5096 15.587 16.17L13.0079 13.9875C12.1712 14.6212 11.1312 15 9.99996 15C7.83246 15 5.99204 13.6179 5.29871 11.6892L2.58121 13.7829C3.96038 16.4817 6.76121 18.3333 9.99996 18.3333Z" fill="#4CAF50"/>
<path d="M18.1712 8.36791H17.5V8.33332H9.99996V11.6667H14.7095C14.3795 12.5987 13.78 13.4025 13.0066 13.9879L13.0079 13.9875L15.587 16.17C15.4045 16.3358 18.3333 14.1667 18.3333 9.99999C18.3333 9.44124 18.2758 8.89582 18.1712 8.36791Z" fill="#1976D2"/>
</svg>
